<?xml version="1.0" encoding="iso-8859-1"?>
<!-- Generator: Adobe Illustrator 19.0.0, SVG Export Plug-In . SVG Version: 6.00 Build 0)  -->
<svg version="1.1" id="Capa_1" xmlns="http://www.w3.org/2000/svg" xmlns:xlink="http://www.w3.org/1999/xlink" x="0px" y="0px"
	 viewBox="0 0 512 512" style="enable-background:new 0 0 512 512;" xml:space="preserve">
<g>
	<g>
		<path d="M120.612,371.295c-38.796,0-70.356,31.565-70.356,70.356S81.816,512,120.612,512c38.796,0,70.356-31.56,70.356-70.35
			S159.408,371.295,120.612,371.295z M120.612,476.521c-19.238,0-34.882-15.644-34.882-34.876c0-19.238,15.65-34.882,34.882-34.882
			c19.233,0,34.882,15.644,34.882,34.882C155.494,460.877,139.85,476.521,120.612,476.521z"/>
	</g>
</g>
<g>
	<g>
		<path d="M127.648,103.736L57.883,73.584c-8.993-3.89-19.434,0.248-23.318,9.247c-3.884,8.992,0.254,19.434,9.247,23.318
			l59.063,25.523v256.763c0,9.797,7.94,17.737,17.737,17.737c9.797,0,17.737-7.94,17.737-17.737V120.018
			C138.349,112.942,134.145,106.544,127.648,103.736z"/>
	</g>
</g>
<g>
	<g>
		<path d="M422.757,466.943l-29.561-35.473c-3.376-4.038-8.36-6.379-13.628-6.379H178.552c-9.797,0-17.737,7.94-17.737,17.737
			s7.94,17.737,17.737,17.737h192.704l24.246,29.094c3.512,4.21,8.555,6.379,13.64,6.379c3.997,0,8.023-1.342,11.346-4.109
			C428.013,485.655,429.03,474.469,422.757,466.943z"/>
	</g>
</g>
<g>
	<g>
		<path d="M461.157,127.704H213.434c-9.797,0-17.737,7.94-17.737,17.737v217.57c0,9.797,7.94,17.737,17.737,17.737h247.723
			c9.802,0,17.737-7.934,17.737-17.737v-217.57C478.894,135.645,470.954,127.704,461.157,127.704z M443.42,345.275H231.171V163.178
			H443.42V345.275z"/>
	</g>
</g>
<g>
	<g>
		<path d="M348.233,0H213.434c-9.797,0-17.737,7.94-17.737,17.737v127.704h35.473V35.473h99.326v109.968h35.473V17.737
			C365.97,7.94,358.03,0,348.233,0z"/>
	</g>
</g>
<g>
	<g>
		<path d="M330.497,202.79h-46.115c-9.797,0-17.737,7.94-17.737,17.737c0,9.797,7.94,17.737,17.737,17.737h46.115
			c9.797,0,17.737-7.94,17.737-17.737C348.233,210.73,340.293,202.79,330.497,202.79z"/>
	</g>
</g>
<g>
	<g>
		<path d="M359.467,277.875h-75.085c-9.797,0-17.737,7.94-17.737,17.737c0,9.797,7.94,17.737,17.737,17.737h75.085
			c9.797,0,17.737-7.94,17.737-17.737C377.203,285.815,369.263,277.875,359.467,277.875z"/>
	</g>
</g>
<g>
</g>
<g>
</g>
<g>
</g>
<g>
</g>
<g>
</g>
<g>
</g>
<g>
</g>
<g>
</g>
<g>
</g>
<g>
</g>
<g>
</g>
<g>
</g>
<g>
</g>
<g>
</g>
<g>
</g>
</svg>
